<svg version="1.1" id="Layer_1" xmlns="http://www.w3.org/2000/svg" xmlns:xlink="http://www.w3.org/1999/xlink" x="0px" y="0px" viewBox="0 0 870.6 249.7" style="enable-background:new 0 0 870.6 249.7;" xml:space="preserve">
	<g fill="white">
		<path class="logo-svg" d="M869.8,138.9c-2.1,3.8-7.1,6.5-11.8,6.5c-2.7,0-15.6-0.5-16.4-29c-0.2-8.7,0.4-20.1,2.8-34.9
		c0,0,0.5-2.1-2.6-3.2c0,0-5.7-1.7-12-0.4c0,0-8.3,1.6-10.4,13.5c0,0-3.4,18.8-1.1,38.5c0,0-1.4,13.2-11.2,13.2
		c-8.3,0-20.2-1.7-20.2-35.4c0-8.4,0.5-18.1,2.6-31.3c0,0,1-2.9-3.1-3.8c0,0-18.4-5.7-21.7,14.1c0,0-1.8,9.1-2.3,21.2
		c-2.5,3.7-6.8,6-14,4.4c0,0-2.7-15.3-17.9-12.3c-8.7,1.7-13.2,9.5-11.4,18.7c1,5.2,3.5,9,7,11.6c-2.2,8.7-7.8,16.8-20.5,16.8
		c-2.5,0-20.4-2-20.4-23.5c0-30.4,31-46.5,51.1-33.9c0,0,4.6,3.3,3.9-1.2c0,0-3.4-18.6-29.7-18.6c-24.2,0-49.5,24.8-49.5,57.4
		c0,25.2,16.4,43.6,41.3,43.6c15.4,0,39.2-8.6,44.1-37.6c0.3,0,0.5-0.1,0.8-0.1c3.1-0.6,10-2.4,15.6-6.6
		c2.2,21.2,10.9,41.9,36.9,41.9c10,0,22.5-3.5,27.1-12.6c0,0,0.3-1,1,0c5.4,6.8,13.2,8.9,18.9,8.9
		C873.9,164.7,871.2,136.3,869.8,138.9z">
		</path>

		<path class="logo-svg" d="M708.9,184.5c-24.5,0.5-39.2-3.1-55.7-7c-0.2,0-0.6-0.1-1-0.2c0.2-33.1,0.1-60.6-0.4-69.2
		c-0.1-1.5,0.1-12.4-7.9-12.7c0,0-5.8-0.7-9.3,6.2c-1.5,3-2.7,8.7-3.3,11.6c-2.7,12.2-9.5,26.2-24.2,26.2c-9.1,0-17.1-7.8-17.1-20.7
		c0-12.2,10.7-34.6,36.7-34.6c18,0,21.8,6.7,21.8,3.6c0-2.2-7.2-19.9-30.2-19.9c-25.2,0-52.5,22.8-52.5,58.2
		c0,26.4,19.8,38.6,38.2,38.6c3.3,0,19.9-1.6,25.3-12.1c0,0,0.7,5.6,0.4,20.3c-0.4-0.1-0.6-0.1-0.9-0.1c-12.5-2-19.3-2.1-27.1-1.9
		c-30.8,0.7-56.1,18.5-56.1,45.4c0,27.1,32.4,34,48.1,33.7c29.9-0.7,52.5-13.3,57-50.8c10.4,1.5,57.9,20.6,89.4,3
		c25.4-14.3,15-44,15-44C743.6,177.4,725.1,184.2,708.9,184.5z M598.2,223.2c-7.9,0-24.2-3.1-23.9-14.6
		c0.3-11.4,13.2-17.8,28.7-17.8c13.4,0,26.2,3.1,26.2,3.1C626.7,219.9,611.9,223.2,598.2,223.2z">
		</path>
	</g>
	<g fill="white">
		<path class="logo-svg" d="M224.2,171.4c-10.4,1.4-38-0.5-36.8-85.6c0-12.7,2.6-34-20.7-34c-23.2,0-38.1,36.8-46.4,60.8
		c-0.5,1.4-1,0.9-1,0.9c-5.2-3.4-9.4-31-9.4-50.2c0-11.8-3-26.3-19.9-26.3c-22,0-35.2,30.9-35.2,30.9c-1.4-29.6-21.6-30.5-28.6-30.5
		c-10.1,0-20,4.4-24.4,13.4c-2,4.2-4,15.8,5,22c0,0,1.3-12.1,14.8-12.1c10.3,0,20.3,5.5,12.5,46.9c-2.5,13.3-3.7,26.2-3.7,38.2
		c0,24.2,4.6,31.7,11.9,35.9c9.9,5.7,23.4-3.8,23.4-3.8C47.2,136.6,67,71.4,82.4,64.3c2.5-0.9,2.2,1.8,2.2,1.8
		c1.2,108.2,50.3,82.1,50.3,82.1c0-28.2,18.1-65.1,25.7-68.7c1.8-0.9,1.7,2.6,1.7,2.6c-0.2,45,4.8,85.7,22.8,98.6
		C206.5,196.1,229.6,170.7,224.2,171.4z">
		</path>

		<path class="logo-svg" d="M572,163.7c-4.2-1.8-10.6-6.5-13.5-15.2c-3.3-10-3.5-20.1-3.1-49.2c0.3-19.9-15.5-31.6-29.5-31.6
		c-6.5,0-18.8,0.7-29.7,12.6c0,0-2.7-12.3-14.7-12.1c-10.9,0.2-15.1,10-15.3,13.7c3.3-0.1,9.6,3.9,9.9,19.9
		c0.1,3.9-0.7,13.3-1.2,24.8c-0.9,4.3-3.7,11.9-12.2,11.9c0,0-23.2,4.3-12.2-62.6c0,0,0.5-2.1-2.6-3.2c0,0-5.7-1.7-12-0.4
		c0,0-8.3,1.6-10.4,13.5c0,0-3.4,18.8-1.1,38.5c0,0-1.2,13.3-13.2,13.3c-17,0-18.2-21.7-18.2-35.5c0-8.4,1.4-19,3.5-32.2
		c0,0,1-2.9-3.1-3.8c0,0-14.7-4.4-21.2,7.4c-2,3.6-4.4,15.3-4.4,32.5c0,6,0.3,13.3,1.5,20.6c-2.9,5.8-7.6,10.9-15.1,10.9
		c-8.2,0-22.7-6.4-22.7-46c0-12.8,1.2-25.8,2.9-37.8c17.6-4.6,37.5-10.3,49-10.3c22.7,0,19.6,15.1,19.6,15.1
		c12.9-3.4,12.6-18.4,12.6-18.4c0-16.8-19.6-19.5-25.5-19.5c-15.1,0-33.8,3.8-51.2,9c-0.1,0-0.3,0.1-0.4,0.1
		c2.9-14.2,5.7-24.6,6.4-27.5c0,0,0.6-2.6-2.4-1.8l-15.5,3.2c-7.6,1.5-9.6,9.5-9.6,9.5c-1,2.9-3,11.6-4.9,22.7
		c-5.9,0.8-10.4,0.9-15.4,0.9c-12.3,0-19.3-8.7-19.3-8.7S264.5,59.2,305,59.2c1.1,0,2.4-0.1,3.8-0.2c-1.1,9.1-1.8,18.2-1.8,26.3
		c0,13.7,1.4,29.7,5.7,43.6c-3.7,7.4-9.9,9.4-13.5,9.4c-5.4,0-11.8-2.7-13-12.9c0,0-0.6-9.2,0.8-22c0,0,0.8-10.5-7.1-10.8
		c0,0-5.8-0.7-9.3,6.2c-1.5,3-2.7,8.7-3.3,11.6c-2.7,12.2-11.2,26.5-24.2,26.5c-9.1,0-17.3-5.3-17.3-19.5
		c0-12.2,10.9-37.1,36.9-37.1c18,0,21.8,6.7,21.8,3.6c0-2.2-7.2-19.9-30.2-19.9c-25.2,0-52.5,23.8-52.5,59.2
		c0,26.4,19.1,39.1,37.6,39.1c8.8,0,20.7-2.9,28.5-16.5c0.3-0.5,0.6-0.6,0.9,0.1c0.6,1.5,5.9,12.8,24,12.8
		c12.6,0,21.2-9.4,25.6-15.7c6.6,12.1,16.7,20.5,31.8,20.5c13.9,0,22-8.5,26.4-15.8c5.6,8.8,14.5,15.1,28.8,15.1
		c10,0,22.8-3.4,27.5-12.6c0,0,0.3-1.3,1.2,0.1c0.7,1.2,6.3,8.6,19.8,8.6c2.1,0,13.1-0.6,20.7-11.5c0.2,9.4,0.6,13.4,9.4,13.6
		c2.2,0,10.7,0.5,14.6-5.9c0,0-2.1-36.5,1.4-47.6c2.7-8.6,10.3-15.9,20.7-15.8c3.9,0.1,11.8,1.1,11.6,14.5c-0.1,8.2-1,24.4,0.7,35.8
		C537.2,170.2,561.7,175.3,572,163.7L572,163.7z">
		</path>
	</g>
</svg>
