<?xml version="1.0" standalone="no"?>
<!DOCTYPE svg PUBLIC "-//W3C//DTD SVG 20010904//EN"
 "http://www.w3.org/TR/2001/REC-SVG-20010904/DTD/svg10.dtd">
<svg version="1.0" xmlns="http://www.w3.org/2000/svg"
 width="2982.000000pt" height="596.000000pt" viewBox="0 0 2982.000000 596.000000"
 preserveAspectRatio="xMidYMid meet">
<g transform="translate(0.000000,596.000000) scale(0.100000,-0.100000)"
fill="#ffffff" stroke="none">
<path d="M430 5940 c-228 -3 -416 -7 -418 -8 -5 -4 3 -5511 9 -5516 3 -4 79
-10 168 -15 89 -5 164 -10 165 -12 2 -2 8 -75 13 -162 6 -107 13 -161 21 -166
29 -18 2573 -21 15633 -21 l13728 0 13 23 c9 17 12 626 12 2765 1 2428 -1
2744 -14 2752 -8 5 -78 10 -155 11 -208 2 -188 -17 -199 187 l-8 172 -14277
-2 c-7852 -1 -14463 -5 -14691 -8z m28792 -163 c23 -12 28 -40 21 -114 l-6
-63 -4247 0 c-8826 0 -24590 -14 -24602 -21 -13 -8 -24 -1711 -27 -4167 l-1
-833 -88 3 -87 3 -8 75 c-10 102 -4 5096 6 5107 5 4 178 10 385 14 608 8
28635 5 28654 -4z m14 -370 c4 -4 8 -1085 8 -2402 1 -1951 -1 -2396 -12 -2407
-21 -21 -2720 -26 -13452 -26 -10212 1 -15223 8 -15237 21 -9 10 -17 4661 -8
4754 l7 63 196 3 c439 7 28491 1 28498 -6z m303 7 l61 -7 0 -2587 0 -2587
-12832 -5 c-7058 -3 -13598 -3 -14533 1 l-1700 6 -3 76 -3 76 3608 6 c1984 4
7654 7 12598 7 4945 0 9816 3 10826 7 l1836 6 7 2486 c4 1367 10 2494 12 2504
6 19 26 21 123 11z"/>
<path d="M2891 4223 c-6 -21 -45 -216 -87 -433 -41 -217 -84 -435 -94 -485
-11 -49 -35 -175 -55 -280 -19 -104 -62 -333 -96 -508 -72 -373 -75 -349 46
-355 101 -6 118 6 139 95 9 37 45 226 81 418 36 193 81 427 100 520 19 94 37
192 42 218 4 26 13 49 18 50 14 3 52 -70 156 -303 51 -113 146 -324 212 -470
66 -146 143 -320 173 -387 49 -114 92 -193 104 -193 5 0 165 349 291 635 31
72 104 234 161 360 57 127 110 246 118 265 21 54 61 105 71 89 4 -8 26 -113
49 -234 22 -121 68 -359 100 -530 33 -170 66 -348 74 -395 21 -120 36 -132
159 -128 l92 3 -1 30 c-1 43 -20 147 -139 760 -58 303 -138 714 -176 915 -39
200 -73 368 -76 373 -3 5 -12 -1 -20 -13 -21 -30 -147 -305 -188 -410 -18 -47
-59 -141 -90 -210 -31 -69 -107 -240 -167 -380 -119 -277 -249 -572 -255 -579
-11 -15 -47 58 -174 349 -501 1155 -537 1238 -550 1245 -4 3 -13 -11 -18 -32z"/>
<path d="M14946 4038 c-4 -106 -6 -569 -4 -1028 l3 -835 54 -8 c29 -5 77 -6
106 -2 l52 6 7 637 c3 350 9 688 13 750 5 107 7 112 24 100 11 -7 142 -142
292 -299 1088 -1142 1196 -1252 1214 -1237 18 15 19 2008 1 2026 -8 8 -48 12
-114 12 l-102 0 -3 -734 c-2 -404 -7 -737 -11 -741 -4 -4 -18 1 -31 12 -27 21
-402 410 -851 883 -325 342 -627 650 -637 650 -4 0 -10 -87 -13 -192z"/>
<path d="M7028 4203 c-8 -10 -18 -27 -21 -38 -3 -11 -35 -85 -72 -165 -37 -80
-76 -167 -87 -195 -19 -50 -80 -189 -318 -730 -71 -159 -172 -388 -225 -509
-130 -295 -167 -387 -161 -394 12 -12 172 -14 213 -3 38 10 44 16 53 52 6 22
27 75 46 117 42 91 255 592 344 807 34 83 93 222 130 310 38 88 74 173 80 188
15 41 40 31 72 -28 15 -28 82 -183 149 -345 66 -162 162 -392 211 -510 50
-118 110 -264 135 -325 24 -60 60 -144 80 -186 l35 -77 82 -7 c46 -3 100 -3
120 1 35 6 38 9 33 34 -3 15 -29 80 -58 146 -28 65 -70 164 -94 219 -82 194
-128 301 -191 445 -34 80 -139 323 -232 540 -202 470 -279 640 -296 658 -10
10 -15 9 -28 -5z"/>
<path d="M19117 4176 c-309 -84 -544 -271 -679 -540 -87 -173 -101 -234 -102
-441 -1 -190 14 -283 65 -415 85 -221 329 -465 561 -561 135 -56 227 -73 388
-72 123 0 160 4 241 26 326 86 567 305 657 597 26 85 44 235 40 330 l-3 75
-45 7 c-63 9 -655 8 -714 -1 -26 -5 -52 -14 -57 -22 -15 -23 -11 -165 5 -178
9 -8 105 -14 290 -18 l276 -6 0 -38 c0 -90 -66 -230 -157 -330 -169 -187 -504
-277 -743 -198 -240 79 -427 253 -531 495 -34 79 -34 79 -37 261 -4 209 2 239
73 389 94 195 310 371 522 424 170 43 317 34 484 -31 97 -37 169 -88 292 -205
55 -52 102 -94 106 -94 4 0 43 33 87 73 l79 74 -85 85 c-158 158 -326 265
-486 309 -64 17 -114 22 -259 25 -166 4 -187 2 -268 -20z"/>
<path d="M22671 4189 c-72 -12 -216 -61 -293 -100 -211 -107 -359 -261 -468
-492 -69 -145 -81 -197 -87 -375 -6 -169 4 -262 41 -370 91 -265 271 -473 520
-597 151 -76 234 -96 424 -102 174 -6 260 4 389 48 262 88 476 284 604 552 55
117 79 237 79 396 0 226 -24 333 -118 516 -40 77 -65 109 -176 223 -112 114
-142 139 -220 182 -103 55 -214 95 -324 116 -81 15 -285 17 -371 3z m277 -209
c322 -41 604 -290 686 -606 21 -82 22 -317 1 -399 -20 -80 -93 -224 -157 -309
-198 -263 -565 -371 -890 -260 -188 64 -360 218 -454 409 -63 127 -86 225 -86
360 0 378 272 717 637 793 109 23 155 25 263 12z"/>
<path d="M9205 4161 l-110 -6 -3 -80 c-4 -124 -15 -119 237 -125 152 -4 214
-9 223 -18 10 -10 14 -193 18 -883 4 -758 7 -871 20 -880 14 -10 153 -5 183 7
21 8 27 198 27 898 0 342 3 678 7 748 l6 126 211 4 c142 2 218 7 233 16 26 15
37 76 26 142 l-8 45 -150 6 c-180 8 -766 7 -920 0z"/>
<path d="M13043 4163 l-33 -4 0 -347 c0 -191 -5 -513 -10 -717 -8 -325 -12
-377 -29 -426 -54 -158 -171 -259 -339 -295 -85 -18 -140 -17 -227 1 -95 20
-170 59 -230 119 -77 78 -104 132 -115 229 -5 45 -12 387 -16 760 l-7 677
-114 0 -114 0 3 -737 4 -738 25 -81 c31 -101 68 -160 157 -248 113 -114 238
-176 418 -207 127 -22 310 9 454 78 59 29 94 55 165 127 56 57 102 114 123
153 63 120 64 132 69 925 l5 717 -39 10 c-37 11 -86 12 -150 4z"/>
<path d="M26724 4164 c-31 -7 -32 -38 -39 -720 -4 -329 -10 -638 -15 -687 -14
-161 -89 -266 -244 -343 -131 -64 -282 -69 -430 -14 -75 28 -185 130 -221 205
-38 77 -43 156 -51 898 l-7 657 -113 0 -114 0 0 -507 c1 -635 12 -977 35
-1053 38 -128 163 -277 298 -358 127 -76 331 -115 484 -92 304 46 529 243 589
515 14 65 18 153 23 460 6 399 0 1019 -10 1029 -8 8 -158 16 -185 10z"/>
</g>
</svg>
