<?xml version="1.0" encoding="UTF-8"?>
<svg xmlns="http://www.w3.org/2000/svg" xmlns:xlink="http://www.w3.org/1999/xlink" width="2982pt" height="596pt" viewBox="0 0 2982 596" version="1.1">
<g id="surface1">
<path style=" stroke:none;fill-rule:nonzero;fill:rgb(0%,0%,0%);fill-opacity:1;" d="M 43 2 C 20.199219 2.300781 1.398438 2.699219 1.199219 2.800781 C 0.699219 3.199219 1.5 553.898438 2.101562 554.398438 C 2.398438 554.800781 10 555.398438 18.898438 555.898438 C 27.800781 556.398438 35.300781 556.898438 35.398438 557.101562 C 35.601562 557.300781 36.199219 564.601562 36.699219 573.300781 C 37.300781 584 38 589.398438 38.800781 589.898438 C 41.699219 591.699219 296.101562 592 1602.101562 592 L 2974.898438 592 L 2976.199219 589.699219 C 2977.101562 588 2977.398438 527.101562 2977.398438 313.199219 C 2977.5 70.398438 2977.300781 38.800781 2976 38 C 2975.199219 37.5 2968.199219 37 2960.5 36.898438 C 2939.699219 36.699219 2941.699219 38.601562 2940.601562 18.199219 L 2939.800781 1 L 1512.101562 1.199219 C 726.898438 1.300781 65.800781 1.699219 43 2 Z M 2922.199219 18.300781 C 2924.5 19.5 2925 22.300781 2924.300781 29.699219 L 2923.699219 36 L 2499 36 C 1616.398438 36 40 37.398438 38.800781 38.101562 C 37.5 38.898438 36.398438 209.199219 36.101562 454.800781 L 36 538.101562 L 27.199219 537.800781 L 18.5 537.5 L 17.699219 530 C 16.699219 519.800781 17.300781 20.398438 18.300781 19.300781 C 18.800781 18.898438 36.101562 18.300781 56.800781 17.898438 C 117.601562 17.101562 2920.300781 17.398438 2922.199219 18.300781 Z M 2923.601562 55.300781 C 2924 55.699219 2924.398438 163.800781 2924.398438 295.5 C 2924.5 490.601562 2924.300781 535.101562 2923.199219 536.199219 C 2921.101562 538.300781 2651.199219 538.800781 1578 538.800781 C 556.800781 538.699219 55.699219 538 54.300781 536.699219 C 53.398438 535.699219 52.601562 70.601562 53.5 61.300781 L 54.199219 55 L 73.800781 54.699219 C 117.699219 54 2922.898438 54.601562 2923.601562 55.300781 Z M 2953.898438 54.601562 L 2960 55.300781 L 2960 572.699219 L 1676.800781 573.199219 C 971 573.5 317 573.5 223.5 573.101562 L 53.5 572.5 L 53.199219 564.898438 L 52.898438 557.300781 L 413.699219 556.699219 C 612.101562 556.300781 1179.101562 556 1673.5 556 C 2168 556 2655.101562 555.699219 2756.101562 555.300781 L 2939.699219 554.699219 L 2940.398438 306.101562 C 2940.800781 169.398438 2941.398438 56.699219 2941.601562 55.699219 C 2942.199219 53.800781 2944.199219 53.601562 2953.898438 54.601562 Z M 2953.898438 54.601562 "/>
<path style=" stroke:none;fill-rule:nonzero;fill:rgb(0%,0%,0%);fill-opacity:1;" d="M 289.101562 173.699219 C 288.5 175.800781 284.601562 195.300781 280.398438 217 C 276.300781 238.699219 272 260.5 271 265.5 C 269.898438 270.398438 267.5 283 265.5 293.5 C 263.601562 303.898438 259.300781 326.800781 255.898438 344.300781 C 248.699219 381.601562 248.398438 379.199219 260.5 379.800781 C 270.601562 380.398438 272.300781 379.199219 274.398438 370.300781 C 275.300781 366.601562 278.898438 347.699219 282.5 328.5 C 286.101562 309.199219 290.601562 285.800781 292.5 276.5 C 294.398438 267.101562 296.199219 257.300781 296.699219 254.699219 C 297.101562 252.101562 298 249.800781 298.5 249.699219 C 299.898438 249.398438 303.699219 256.699219 314.101562 280 C 319.199219 291.300781 328.699219 312.398438 335.300781 327 C 341.898438 341.601562 349.601562 359 352.601562 365.699219 C 357.5 377.101562 361.800781 385 363 385 C 363.5 385 379.5 350.101562 392.101562 321.5 C 395.199219 314.300781 402.5 298.101562 408.199219 285.5 C 413.898438 272.800781 419.199219 260.898438 420 259 C 422.101562 253.601562 426.101562 248.5 427.101562 250.101562 C 427.5 250.898438 429.699219 261.398438 432 273.5 C 434.199219 285.601562 438.800781 309.398438 442 326.5 C 445.300781 343.5 448.601562 361.300781 449.398438 366 C 451.5 378 453 379.199219 465.300781 378.800781 L 474.5 378.5 L 474.398438 375.5 C 474.300781 371.199219 472.398438 360.800781 460.5 299.5 C 454.699219 269.199219 446.699219 228.101562 442.898438 208 C 439 188 435.601562 171.199219 435.300781 170.699219 C 435 170.199219 434.101562 170.800781 433.300781 172 C 431.199219 175 418.601562 202.5 414.5 213 C 412.699219 217.699219 408.601562 227.101562 405.5 234 C 402.398438 240.898438 394.800781 258 388.800781 272 C 376.898438 299.699219 363.898438 329.199219 363.300781 329.898438 C 362.199219 331.398438 358.601562 324.101562 345.898438 295 C 295.800781 179.5 292.199219 171.199219 290.898438 170.5 C 290.5 170.199219 289.601562 171.601562 289.101562 173.699219 Z M 289.101562 173.699219 "/>
<path style=" stroke:none;fill-rule:nonzero;fill:rgb(0%,0%,0%);fill-opacity:1;" d="M 1494.601562 192.199219 C 1494.199219 202.800781 1494 249.101562 1494.199219 295 L 1494.5 378.5 L 1499.898438 379.300781 C 1502.800781 379.800781 1507.601562 379.898438 1510.5 379.5 L 1515.699219 378.898438 L 1516.398438 315.199219 C 1516.699219 280.199219 1517.300781 246.398438 1517.699219 240.199219 C 1518.199219 229.5 1518.398438 229 1520.101562 230.199219 C 1521.199219 230.898438 1534.300781 244.398438 1549.300781 260.101562 C 1658.101562 374.300781 1668.898438 385.300781 1670.699219 383.800781 C 1672.5 382.300781 1672.601562 183 1670.800781 181.199219 C 1670 180.398438 1666 180 1659.398438 180 L 1649.199219 180 L 1648.898438 253.398438 C 1648.699219 293.800781 1648.199219 327.101562 1647.800781 327.5 C 1647.398438 327.898438 1646 327.398438 1644.699219 326.300781 C 1642 324.199219 1604.5 285.300781 1559.601562 238 C 1527.101562 203.800781 1496.898438 173 1495.898438 173 C 1495.5 173 1494.898438 181.699219 1494.601562 192.199219 Z M 1494.601562 192.199219 "/>
<path style=" stroke:none;fill-rule:nonzero;fill:rgb(0%,0%,0%);fill-opacity:1;" d="M 702.800781 175.699219 C 702 176.699219 701 178.398438 700.699219 179.5 C 700.398438 180.601562 697.199219 188 693.5 196 C 689.800781 204 685.898438 212.699219 684.800781 215.5 C 682.898438 220.5 676.800781 234.398438 653 288.5 C 645.898438 304.398438 635.800781 327.300781 630.5 339.398438 C 617.5 368.898438 613.800781 378.101562 614.398438 378.800781 C 615.601562 380 631.601562 380.199219 635.699219 379.101562 C 639.5 378.101562 640.101562 377.5 641 373.898438 C 641.601562 371.699219 643.699219 366.398438 645.601562 362.199219 C 649.800781 353.101562 671.101562 303 680 281.5 C 683.398438 273.199219 689.300781 259.300781 693 250.5 C 696.800781 241.699219 700.398438 233.199219 701 231.699219 C 702.5 227.601562 705 228.601562 708.199219 234.5 C 709.699219 237.300781 716.398438 252.800781 723.101562 269 C 729.699219 285.199219 739.300781 308.199219 744.199219 320 C 749.199219 331.800781 755.199219 346.398438 757.699219 352.5 C 760.101562 358.5 763.699219 366.898438 765.699219 371.101562 L 769.199219 378.800781 L 777.398438 379.5 C 782 379.800781 787.398438 379.800781 789.398438 379.398438 C 792.898438 378.800781 793.199219 378.5 792.699219 376 C 792.398438 374.5 789.800781 368 786.898438 361.398438 C 784.101562 354.898438 779.898438 345 777.5 339.5 C 769.300781 320.101562 764.699219 309.398438 758.398438 295 C 755 287 744.5 262.699219 735.199219 241 C 715 194 707.300781 177 705.601562 175.199219 C 704.601562 174.199219 704.101562 174.300781 702.800781 175.699219 Z M 702.800781 175.699219 "/>
<path style=" stroke:none;fill-rule:nonzero;fill:rgb(0%,0%,0%);fill-opacity:1;" d="M 1911.699219 178.398438 C 1880.800781 186.800781 1857.300781 205.5 1843.800781 232.398438 C 1835.101562 249.699219 1833.699219 255.800781 1833.601562 276.5 C 1833.5 295.5 1835 304.800781 1840.101562 318 C 1848.601562 340.101562 1873 364.5 1896.199219 374.101562 C 1909.699219 379.699219 1918.898438 381.398438 1935 381.300781 C 1947.300781 381.300781 1951 380.898438 1959.101562 378.699219 C 1991.699219 370.101562 2015.800781 348.199219 2024.800781 319 C 2027.398438 310.5 2029.199219 295.5 2028.800781 286 L 2028.5 278.5 L 2024 277.800781 C 2017.699219 276.898438 1958.5 277 1952.601562 277.898438 C 1950 278.398438 1947.398438 279.300781 1946.898438 280.101562 C 1945.398438 282.398438 1945.800781 296.601562 1947.398438 297.898438 C 1948.300781 298.699219 1957.898438 299.300781 1976.398438 299.699219 L 2004 300.300781 L 2004 304.101562 C 2004 313.101562 1997.398438 327.101562 1988.300781 337.101562 C 1971.398438 355.800781 1937.898438 364.800781 1914 356.898438 C 1890 349 1871.300781 331.601562 1860.898438 307.398438 C 1857.5 299.5 1857.5 299.5 1857.199219 281.300781 C 1856.800781 260.398438 1857.398438 257.398438 1864.5 242.398438 C 1873.898438 222.898438 1895.5 205.300781 1916.699219 200 C 1933.699219 195.699219 1948.398438 196.601562 1965.101562 203.101562 C 1974.800781 206.800781 1982 211.898438 1994.300781 223.601562 C 1999.800781 228.800781 2004.5 233 2004.898438 233 C 2005.300781 233 2009.199219 229.699219 2013.601562 225.699219 L 2021.5 218.300781 L 2013 209.800781 C 1997.199219 194 1980.398438 183.300781 1964.398438 178.898438 C 1958 177.199219 1953 176.699219 1938.5 176.398438 C 1921.898438 176 1919.800781 176.199219 1911.699219 178.398438 Z M 1911.699219 178.398438 "/>
<path style=" stroke:none;fill-rule:nonzero;fill:rgb(0%,0%,0%);fill-opacity:1;" d="M 2267.101562 177.101562 C 2259.898438 178.300781 2245.5 183.199219 2237.800781 187.101562 C 2216.699219 197.800781 2201.898438 213.199219 2191 236.300781 C 2184.101562 250.800781 2182.898438 256 2182.300781 273.800781 C 2181.699219 290.699219 2182.699219 300 2186.398438 310.800781 C 2195.5 337.300781 2213.5 358.101562 2238.398438 370.5 C 2253.5 378.101562 2261.800781 380.101562 2280.800781 380.699219 C 2298.199219 381.300781 2306.800781 380.300781 2319.699219 375.898438 C 2345.898438 367.101562 2367.300781 347.5 2380.101562 320.699219 C 2385.601562 309 2388 297 2388 281.101562 C 2388 258.5 2385.601562 247.800781 2376.199219 229.5 C 2372.199219 221.800781 2369.699219 218.601562 2358.601562 207.199219 C 2347.398438 195.800781 2344.398438 193.300781 2336.601562 189 C 2326.300781 183.5 2315.199219 179.5 2304.199219 177.398438 C 2296.101562 175.898438 2275.699219 175.699219 2267.101562 177.101562 Z M 2294.800781 198 C 2327 202.101562 2355.199219 227 2363.398438 258.601562 C 2365.5 266.800781 2365.601562 290.300781 2363.5 298.5 C 2361.5 306.5 2354.199219 320.898438 2347.800781 329.398438 C 2328 355.699219 2291.300781 366.5 2258.800781 355.398438 C 2240 349 2222.800781 333.601562 2213.398438 314.5 C 2207.101562 301.800781 2204.800781 292 2204.800781 278.5 C 2204.800781 240.699219 2232 206.800781 2268.5 199.199219 C 2279.398438 196.898438 2284 196.699219 2294.800781 198 Z M 2294.800781 198 "/>
<path style=" stroke:none;fill-rule:nonzero;fill:rgb(0%,0%,0%);fill-opacity:1;" d="M 920.5 179.898438 L 909.5 180.5 L 909.199219 188.5 C 908.800781 200.898438 907.699219 200.398438 932.898438 201 C 948.101562 201.398438 954.300781 201.898438 955.199219 202.800781 C 956.199219 203.800781 956.601562 222.101562 957 291.101562 C 957.398438 366.898438 957.699219 378.199219 959 379.101562 C 960.398438 380.101562 974.300781 379.601562 977.300781 378.398438 C 979.398438 377.601562 980 358.601562 980 288.601562 C 980 254.398438 980.300781 220.800781 980.699219 213.800781 L 981.300781 201.199219 L 1002.398438 200.800781 C 1016.601562 200.601562 1024.199219 200.101562 1025.699219 199.199219 C 1028.300781 197.699219 1029.398438 191.601562 1028.300781 185 L 1027.5 180.5 L 1012.5 179.898438 C 994.5 179.101562 935.898438 179.199219 920.5 179.898438 Z M 920.5 179.898438 "/>
<path style=" stroke:none;fill-rule:nonzero;fill:rgb(0%,0%,0%);fill-opacity:1;" d="M 1304.300781 179.699219 L 1301 180.101562 L 1301 214.800781 C 1301 233.898438 1300.5 266.101562 1300 286.5 C 1299.199219 319 1298.800781 324.199219 1297.101562 329.101562 C 1291.699219 344.898438 1280 355 1263.199219 358.601562 C 1254.699219 360.398438 1249.199219 360.300781 1240.5 358.5 C 1231 356.5 1223.5 352.601562 1217.5 346.601562 C 1209.800781 338.800781 1207.101562 333.398438 1206 323.699219 C 1205.5 319.199219 1204.800781 285 1204.398438 247.699219 L 1203.699219 180 L 1180.898438 180 L 1181.199219 253.699219 L 1181.601562 327.5 L 1184.101562 335.601562 C 1187.199219 345.699219 1190.898438 351.601562 1199.800781 360.398438 C 1211.101562 371.800781 1223.601562 378 1241.601562 381.101562 C 1254.300781 383.300781 1272.601562 380.199219 1287 373.300781 C 1292.898438 370.398438 1296.398438 367.800781 1303.5 360.601562 C 1309.101562 354.898438 1313.699219 349.199219 1315.800781 345.300781 C 1322.101562 333.300781 1322.199219 332.101562 1322.699219 252.800781 L 1323.199219 181.101562 L 1319.300781 180.101562 C 1315.601562 179 1310.699219 178.898438 1304.300781 179.699219 Z M 1304.300781 179.699219 "/>
<path style=" stroke:none;fill-rule:nonzero;fill:rgb(0%,0%,0%);fill-opacity:1;" d="M 2672.398438 179.601562 C 2669.300781 180.300781 2669.199219 183.398438 2668.5 251.601562 C 2668.101562 284.5 2667.5 315.398438 2667 320.300781 C 2665.601562 336.398438 2658.101562 346.898438 2642.601562 354.601562 C 2629.5 361 2614.398438 361.5 2599.601562 356 C 2592.101562 353.199219 2581.101562 343 2577.5 335.5 C 2573.699219 327.800781 2573.199219 319.898438 2572.398438 245.699219 L 2571.699219 180 L 2549 180 L 2549 230.699219 C 2549.101562 294.199219 2550.199219 328.398438 2552.5 336 C 2556.300781 348.800781 2568.800781 363.699219 2582.300781 371.800781 C 2595 379.398438 2615.398438 383.300781 2630.699219 381 C 2661.101562 376.398438 2683.601562 356.699219 2689.601562 329.5 C 2691 323 2691.398438 314.199219 2691.898438 283.5 C 2692.5 243.601562 2691.898438 181.601562 2690.898438 180.601562 C 2690.101562 179.800781 2675.101562 179 2672.398438 179.601562 Z M 2672.398438 179.601562 "/>
</g>
</svg>
